solid OpenSCAD_Model
  facet normal -1 0 0
    outer loop
      vertex -7.5 -4 -1
      vertex -7.5 4 1
      vertex -7.5 4 -1
    endloop
  endfacet
  facet normal -1 -0 0
    outer loop
      vertex -7.5 4 1
      vertex -7.5 -4 -1
      vertex -7.5 -4 1
    endloop
  endfacet
  facet normal 0 0 1
    outer loop
      vertex 7.5 4 1
      vertex 6.5 3.5 1
      vertex 7.5 -4 1
    endloop
  endfacet
  facet normal 0 0 1
    outer loop
      vertex 7.5 4 1
      vertex -6.5 3.5 1
      vertex 6.5 3.5 1
    endloop
  endfacet
  facet normal 0 0 1
    outer loop
      vertex -6.5 3.5 1
      vertex -7.5 4 1
      vertex -6.5 -3.5 1
    endloop
  endfacet
  facet normal -0 0 1
    outer loop
      vertex -7.5 4 1
      vertex -6.5 3.5 1
      vertex 7.5 4 1
    endloop
  endfacet
  facet normal -0 0 1
    outer loop
      vertex 6.5 -3.5 1
      vertex 7.5 -4 1
      vertex 6.5 3.5 1
    endloop
  endfacet
  facet normal -0 0 1
    outer loop
      vertex -6.5 -3.5 1
      vertex 7.5 -4 1
      vertex 6.5 -3.5 1
    endloop
  endfacet
  facet normal 0 0 1
    outer loop
      vertex -6.5 -3.5 1
      vertex -7.5 -4 1
      vertex 7.5 -4 1
    endloop
  endfacet
  facet normal 0 0 1
    outer loop
      vertex -7.5 -4 1
      vertex -6.5 -3.5 1
      vertex -7.5 4 1
    endloop
  endfacet
  facet normal 1 -0 0
    outer loop
      vertex 7.5 -4 1
      vertex 7.5 4 -1
      vertex 7.5 4 1
    endloop
  endfacet
  facet normal 1 0 0
    outer loop
      vertex 7.5 4 -1
      vertex 7.5 -4 1
      vertex 7.5 -4 -1
    endloop
  endfacet
  facet normal 0 1 -0
    outer loop
      vertex 7.5 4 -1
      vertex -7.5 4 1
      vertex 7.5 4 1
    endloop
  endfacet
  facet normal 0 1 0
    outer loop
      vertex -7.5 4 1
      vertex 7.5 4 -1
      vertex -7.5 4 -1
    endloop
  endfacet
  facet normal 0 0 -1
    outer loop
      vertex 7.5 -4 -1
      vertex 6.5 -3.5 -1
      vertex 7.5 4 -1
    endloop
  endfacet
  facet normal 0 0 -1
    outer loop
      vertex 7.5 -4 -1
      vertex -6.5 -3.5 -1
      vertex 6.5 -3.5 -1
    endloop
  endfacet
  facet normal -0 0 -1
    outer loop
      vertex -6.5 -3.5 -1
      vertex -7.5 -4 -1
      vertex -6.5 3.5 -1
    endloop
  endfacet
  facet normal 0 0 -1
    outer loop
      vertex -7.5 -4 -1
      vertex -6.5 -3.5 -1
      vertex 7.5 -4 -1
    endloop
  endfacet
  facet normal 0 0 -1
    outer loop
      vertex 6.5 3.5 -1
      vertex 7.5 4 -1
      vertex 6.5 -3.5 -1
    endloop
  endfacet
  facet normal 0 0 -1
    outer loop
      vertex -6.5 3.5 -1
      vertex 7.5 4 -1
      vertex 6.5 3.5 -1
    endloop
  endfacet
  facet normal 0 0 -1
    outer loop
      vertex -6.5 3.5 -1
      vertex -7.5 4 -1
      vertex 7.5 4 -1
    endloop
  endfacet
  facet normal 0 0 -1
    outer loop
      vertex -7.5 4 -1
      vertex -6.5 3.5 -1
      vertex -7.5 -4 -1
    endloop
  endfacet
  facet normal 0 -1 0
    outer loop
      vertex -7.5 -4 -1
      vertex 7.5 -4 1
      vertex -7.5 -4 1
    endloop
  endfacet
  facet normal 0 -1 -0
    outer loop
      vertex 7.5 -4 1
      vertex -7.5 -4 -1
      vertex 7.5 -4 -1
    endloop
  endfacet
  facet normal 1 -0 0
    outer loop
      vertex -6.5 -3.5 1
      vertex -6.5 3.5 -1
      vertex -6.5 3.5 1
    endloop
  endfacet
  facet normal 1 0 0
    outer loop
      vertex -6.5 3.5 -1
      vertex -6.5 -3.5 1
      vertex -6.5 -3.5 -1
    endloop
  endfacet
  facet normal -1 0 0
    outer loop
      vertex 6.5 -3.5 -1
      vertex 6.5 3.5 1
      vertex 6.5 3.5 -1
    endloop
  endfacet
  facet normal -1 -0 0
    outer loop
      vertex 6.5 3.5 1
      vertex 6.5 -3.5 -1
      vertex 6.5 -3.5 1
    endloop
  endfacet
  facet normal 0 1 -0
    outer loop
      vertex 6.5 -3.5 -1
      vertex -6.5 -3.5 1
      vertex 6.5 -3.5 1
    endloop
  endfacet
  facet normal 0 1 0
    outer loop
      vertex -6.5 -3.5 1
      vertex 6.5 -3.5 -1
      vertex -6.5 -3.5 -1
    endloop
  endfacet
  facet normal 0 -1 0
    outer loop
      vertex -6.5 3.5 -1
      vertex 6.5 3.5 1
      vertex -6.5 3.5 1
    endloop
  endfacet
  facet normal 0 -1 -0
    outer loop
      vertex 6.5 3.5 1
      vertex -6.5 3.5 -1
      vertex 6.5 3.5 -1
    endloop
  endfacet
endsolid OpenSCAD_Model
