solid OpenSCAD_Model
  facet normal -1 0 0
    outer loop
      vertex -5.5 -2.5 -1
      vertex -5.5 2.5 1
      vertex -5.5 2.5 -1
    endloop
  endfacet
  facet normal -1 -0 0
    outer loop
      vertex -5.5 2.5 1
      vertex -5.5 -2.5 -1
      vertex -5.5 -2.5 1
    endloop
  endfacet
  facet normal 0 0 1
    outer loop
      vertex 5.5 2.5 1
      vertex 4.55 0.599999 1
      vertex 5.5 -2.5 1
    endloop
  endfacet
  facet normal 0 0 1
    outer loop
      vertex 5.5 2.5 1
      vertex 4.47388 0.982682 1
      vertex 4.55 0.599999 1
    endloop
  endfacet
  facet normal 0 0 1
    outer loop
      vertex 5.5 2.5 1
      vertex 4.25711 1.30711 1
      vertex 4.47388 0.982682 1
    endloop
  endfacet
  facet normal 0 0 1
    outer loop
      vertex 5.5 2.5 1
      vertex 3.93268 1.52388 1
      vertex 4.25711 1.30711 1
    endloop
  endfacet
  facet normal 0 0 1
    outer loop
      vertex 5.5 2.5 1
      vertex 3.55 1.6 1
      vertex 3.93268 1.52388 1
    endloop
  endfacet
  facet normal 0 0 1
    outer loop
      vertex 5.5 2.5 1
      vertex -3.55 1.6 1
      vertex 3.55 1.6 1
    endloop
  endfacet
  facet normal 0 0 1
    outer loop
      vertex -4.55 0.599999 1
      vertex -5.5 2.5 1
      vertex -4.55 -0.599999 1
    endloop
  endfacet
  facet normal 0 0 1
    outer loop
      vertex -4.47388 0.982682 1
      vertex -5.5 2.5 1
      vertex -4.55 0.599999 1
    endloop
  endfacet
  facet normal 0 0 1
    outer loop
      vertex -4.25711 1.30711 1
      vertex -5.5 2.5 1
      vertex -4.47388 0.982682 1
    endloop
  endfacet
  facet normal 0 0 1
    outer loop
      vertex -3.93268 1.52388 1
      vertex -5.5 2.5 1
      vertex -4.25711 1.30711 1
    endloop
  endfacet
  facet normal 0 0 1
    outer loop
      vertex -3.55 1.6 1
      vertex -5.5 2.5 1
      vertex -3.93268 1.52388 1
    endloop
  endfacet
  facet normal -0 0 1
    outer loop
      vertex -5.5 2.5 1
      vertex -3.55 1.6 1
      vertex 5.5 2.5 1
    endloop
  endfacet
  facet normal -0 0 1
    outer loop
      vertex 4.55 -0.599999 1
      vertex 5.5 -2.5 1
      vertex 4.55 0.599999 1
    endloop
  endfacet
  facet normal -0 0 1
    outer loop
      vertex 4.47388 -0.982682 1
      vertex 5.5 -2.5 1
      vertex 4.55 -0.599999 1
    endloop
  endfacet
  facet normal -0 0 1
    outer loop
      vertex 4.25711 -1.30711 1
      vertex 5.5 -2.5 1
      vertex 4.47388 -0.982682 1
    endloop
  endfacet
  facet normal -0 0 1
    outer loop
      vertex 3.93268 -1.52388 1
      vertex 5.5 -2.5 1
      vertex 4.25711 -1.30711 1
    endloop
  endfacet
  facet normal -0 0 1
    outer loop
      vertex 3.55 -1.6 1
      vertex 5.5 -2.5 1
      vertex 3.93268 -1.52388 1
    endloop
  endfacet
  facet normal -0 0 1
    outer loop
      vertex -3.55 -1.6 1
      vertex 5.5 -2.5 1
      vertex 3.55 -1.6 1
    endloop
  endfacet
  facet normal 0 0 1
    outer loop
      vertex -5.5 -2.5 1
      vertex -4.55 -0.599999 1
      vertex -5.5 2.5 1
    endloop
  endfacet
  facet normal 0 0 1
    outer loop
      vertex -3.55 -1.6 1
      vertex -5.5 -2.5 1
      vertex 5.5 -2.5 1
    endloop
  endfacet
  facet normal 0 0 1
    outer loop
      vertex -3.93268 -1.52388 1
      vertex -5.5 -2.5 1
      vertex -3.55 -1.6 1
    endloop
  endfacet
  facet normal 0 0 1
    outer loop
      vertex -4.25711 -1.30711 1
      vertex -5.5 -2.5 1
      vertex -3.93268 -1.52388 1
    endloop
  endfacet
  facet normal 0 0 1
    outer loop
      vertex -4.47388 -0.982682 1
      vertex -5.5 -2.5 1
      vertex -4.25711 -1.30711 1
    endloop
  endfacet
  facet normal 0 0 1
    outer loop
      vertex -4.55 -0.599999 1
      vertex -5.5 -2.5 1
      vertex -4.47388 -0.982682 1
    endloop
  endfacet
  facet normal 1 -0 0
    outer loop
      vertex 5.5 -2.5 1
      vertex 5.5 2.5 -1
      vertex 5.5 2.5 1
    endloop
  endfacet
  facet normal 1 0 0
    outer loop
      vertex 5.5 2.5 -1
      vertex 5.5 -2.5 1
      vertex 5.5 -2.5 -1
    endloop
  endfacet
  facet normal 0 1 -0
    outer loop
      vertex 5.5 2.5 -1
      vertex -5.5 2.5 1
      vertex 5.5 2.5 1
    endloop
  endfacet
  facet normal 0 1 0
    outer loop
      vertex -5.5 2.5 1
      vertex 5.5 2.5 -1
      vertex -5.5 2.5 -1
    endloop
  endfacet
  facet normal 0 0 -1
    outer loop
      vertex 5.5 -2.5 -1
      vertex 4.55 -0.599999 -1
      vertex 5.5 2.5 -1
    endloop
  endfacet
  facet normal 0 0 -1
    outer loop
      vertex 5.5 -2.5 -1
      vertex 4.47388 -0.982682 -1
      vertex 4.55 -0.599999 -1
    endloop
  endfacet
  facet normal 0 0 -1
    outer loop
      vertex 5.5 -2.5 -1
      vertex 4.25711 -1.30711 -1
      vertex 4.47388 -0.982682 -1
    endloop
  endfacet
  facet normal 0 0 -1
    outer loop
      vertex 5.5 -2.5 -1
      vertex 3.93268 -1.52388 -1
      vertex 4.25711 -1.30711 -1
    endloop
  endfacet
  facet normal 0 0 -1
    outer loop
      vertex 5.5 -2.5 -1
      vertex 3.55 -1.6 -1
      vertex 3.93268 -1.52388 -1
    endloop
  endfacet
  facet normal 0 0 -1
    outer loop
      vertex 5.5 -2.5 -1
      vertex -3.55 -1.6 -1
      vertex 3.55 -1.6 -1
    endloop
  endfacet
  facet normal -0 0 -1
    outer loop
      vertex -4.55 -0.599999 -1
      vertex -5.5 -2.5 -1
      vertex -4.55 0.599999 -1
    endloop
  endfacet
  facet normal -0 0 -1
    outer loop
      vertex -4.47388 -0.982682 -1
      vertex -5.5 -2.5 -1
      vertex -4.55 -0.599999 -1
    endloop
  endfacet
  facet normal -0 0 -1
    outer loop
      vertex -4.25711 -1.30711 -1
      vertex -5.5 -2.5 -1
      vertex -4.47388 -0.982682 -1
    endloop
  endfacet
  facet normal -0 0 -1
    outer loop
      vertex -3.93268 -1.52388 -1
      vertex -5.5 -2.5 -1
      vertex -4.25711 -1.30711 -1
    endloop
  endfacet
  facet normal -0 0 -1
    outer loop
      vertex -3.55 -1.6 -1
      vertex -5.5 -2.5 -1
      vertex -3.93268 -1.52388 -1
    endloop
  endfacet
  facet normal 0 0 -1
    outer loop
      vertex -5.5 -2.5 -1
      vertex -3.55 -1.6 -1
      vertex 5.5 -2.5 -1
    endloop
  endfacet
  facet normal 0 0 -1
    outer loop
      vertex 4.55 0.599999 -1
      vertex 5.5 2.5 -1
      vertex 4.55 -0.599999 -1
    endloop
  endfacet
  facet normal 0 0 -1
    outer loop
      vertex 4.47388 0.982682 -1
      vertex 5.5 2.5 -1
      vertex 4.55 0.599999 -1
    endloop
  endfacet
  facet normal 0 0 -1
    outer loop
      vertex 4.25711 1.30711 -1
      vertex 5.5 2.5 -1
      vertex 4.47388 0.982682 -1
    endloop
  endfacet
  facet normal 0 0 -1
    outer loop
      vertex 3.93268 1.52388 -1
      vertex 5.5 2.5 -1
      vertex 4.25711 1.30711 -1
    endloop
  endfacet
  facet normal 0 0 -1
    outer loop
      vertex 3.55 1.6 -1
      vertex 5.5 2.5 -1
      vertex 3.93268 1.52388 -1
    endloop
  endfacet
  facet normal 0 0 -1
    outer loop
      vertex -3.55 1.6 -1
      vertex 5.5 2.5 -1
      vertex 3.55 1.6 -1
    endloop
  endfacet
  facet normal 0 0 -1
    outer loop
      vertex -5.5 2.5 -1
      vertex -4.55 0.599999 -1
      vertex -5.5 -2.5 -1
    endloop
  endfacet
  facet normal 0 0 -1
    outer loop
      vertex -3.55 1.6 -1
      vertex -5.5 2.5 -1
      vertex 5.5 2.5 -1
    endloop
  endfacet
  facet normal 0 0 -1
    outer loop
      vertex -3.93268 1.52388 -1
      vertex -5.5 2.5 -1
      vertex -3.55 1.6 -1
    endloop
  endfacet
  facet normal 0 0 -1
    outer loop
      vertex -4.25711 1.30711 -1
      vertex -5.5 2.5 -1
      vertex -3.93268 1.52388 -1
    endloop
  endfacet
  facet normal 0 0 -1
    outer loop
      vertex -4.47388 0.982682 -1
      vertex -5.5 2.5 -1
      vertex -4.25711 1.30711 -1
    endloop
  endfacet
  facet normal 0 0 -1
    outer loop
      vertex -4.55 0.599999 -1
      vertex -5.5 2.5 -1
      vertex -4.47388 0.982682 -1
    endloop
  endfacet
  facet normal 0 -1 0
    outer loop
      vertex -5.5 -2.5 -1
      vertex 5.5 -2.5 1
      vertex -5.5 -2.5 1
    endloop
  endfacet
  facet normal 0 -1 -0
    outer loop
      vertex 5.5 -2.5 1
      vertex -5.5 -2.5 -1
      vertex 5.5 -2.5 -1
    endloop
  endfacet
  facet normal -0.195091 -0.980785 0
    outer loop
      vertex 3.55 1.6 -1
      vertex 3.93268 1.52388 1
      vertex 3.55 1.6 1
    endloop
  endfacet
  facet normal -0.195091 -0.980785 -0
    outer loop
      vertex 3.93268 1.52388 1
      vertex 3.55 1.6 -1
      vertex 3.93268 1.52388 -1
    endloop
  endfacet
  facet normal -0.555557 -0.831478 0
    outer loop
      vertex 3.93268 1.52388 -1
      vertex 4.25711 1.30711 1
      vertex 3.93268 1.52388 1
    endloop
  endfacet
  facet normal -0.555557 -0.831478 -0
    outer loop
      vertex 4.25711 1.30711 1
      vertex 3.93268 1.52388 -1
      vertex 4.25711 1.30711 -1
    endloop
  endfacet
  facet normal -0.831477 -0.55556 0
    outer loop
      vertex 4.47388 0.982682 -1
      vertex 4.25711 1.30711 1
      vertex 4.25711 1.30711 -1
    endloop
  endfacet
  facet normal -0.831477 -0.55556 0
    outer loop
      vertex 4.25711 1.30711 1
      vertex 4.47388 0.982682 -1
      vertex 4.47388 0.982682 1
    endloop
  endfacet
  facet normal 0.831477 0.55556 0
    outer loop
      vertex -4.25711 -1.30711 1
      vertex -4.47388 -0.982682 -1
      vertex -4.47388 -0.982682 1
    endloop
  endfacet
  facet normal 0.831477 0.55556 0
    outer loop
      vertex -4.47388 -0.982682 -1
      vertex -4.25711 -1.30711 1
      vertex -4.25711 -1.30711 -1
    endloop
  endfacet
  facet normal 0 -1 0
    outer loop
      vertex -3.55 1.6 -1
      vertex 3.55 1.6 1
      vertex -3.55 1.6 1
    endloop
  endfacet
  facet normal 0 -1 -0
    outer loop
      vertex 3.55 1.6 1
      vertex -3.55 1.6 -1
      vertex 3.55 1.6 -1
    endloop
  endfacet
  facet normal 0.195091 -0.980785 0
    outer loop
      vertex -3.93268 1.52388 -1
      vertex -3.55 1.6 1
      vertex -3.93268 1.52388 1
    endloop
  endfacet
  facet normal 0.195091 -0.980785 0
    outer loop
      vertex -3.55 1.6 1
      vertex -3.93268 1.52388 -1
      vertex -3.55 1.6 -1
    endloop
  endfacet
  facet normal 0.980785 -0.195089 0
    outer loop
      vertex -4.55 0.599999 1
      vertex -4.47388 0.982682 -1
      vertex -4.47388 0.982682 1
    endloop
  endfacet
  facet normal 0.980785 -0.195089 0
    outer loop
      vertex -4.47388 0.982682 -1
      vertex -4.55 0.599999 1
      vertex -4.55 0.599999 -1
    endloop
  endfacet
  facet normal 0.555557 -0.831478 0
    outer loop
      vertex -4.25711 1.30711 -1
      vertex -3.93268 1.52388 1
      vertex -4.25711 1.30711 1
    endloop
  endfacet
  facet normal 0.555557 -0.831478 0
    outer loop
      vertex -3.93268 1.52388 1
      vertex -4.25711 1.30711 -1
      vertex -3.93268 1.52388 -1
    endloop
  endfacet
  facet normal 1 -0 0
    outer loop
      vertex -4.55 -0.599999 1
      vertex -4.55 0.599999 -1
      vertex -4.55 0.599999 1
    endloop
  endfacet
  facet normal 1 0 0
    outer loop
      vertex -4.55 0.599999 -1
      vertex -4.55 -0.599999 1
      vertex -4.55 -0.599999 -1
    endloop
  endfacet
  facet normal 0 1 -0
    outer loop
      vertex 3.55 -1.6 -1
      vertex -3.55 -1.6 1
      vertex 3.55 -1.6 1
    endloop
  endfacet
  facet normal 0 1 0
    outer loop
      vertex -3.55 -1.6 1
      vertex 3.55 -1.6 -1
      vertex -3.55 -1.6 -1
    endloop
  endfacet
  facet normal 0.555557 0.831478 -0
    outer loop
      vertex -3.93268 -1.52388 -1
      vertex -4.25711 -1.30711 1
      vertex -3.93268 -1.52388 1
    endloop
  endfacet
  facet normal 0.555557 0.831478 0
    outer loop
      vertex -4.25711 -1.30711 1
      vertex -3.93268 -1.52388 -1
      vertex -4.25711 -1.30711 -1
    endloop
  endfacet
  facet normal -0.555557 0.831478 0
    outer loop
      vertex 4.25711 -1.30711 -1
      vertex 3.93268 -1.52388 1
      vertex 4.25711 -1.30711 1
    endloop
  endfacet
  facet normal -0.555557 0.831478 0
    outer loop
      vertex 3.93268 -1.52388 1
      vertex 4.25711 -1.30711 -1
      vertex 3.93268 -1.52388 -1
    endloop
  endfacet
  facet normal -0.980785 -0.195089 0
    outer loop
      vertex 4.55 0.599999 -1
      vertex 4.47388 0.982682 1
      vertex 4.47388 0.982682 -1
    endloop
  endfacet
  facet normal -0.980785 -0.195089 0
    outer loop
      vertex 4.47388 0.982682 1
      vertex 4.55 0.599999 -1
      vertex 4.55 0.599999 1
    endloop
  endfacet
  facet normal 0.831477 -0.55556 0
    outer loop
      vertex -4.47388 0.982682 1
      vertex -4.25711 1.30711 -1
      vertex -4.25711 1.30711 1
    endloop
  endfacet
  facet normal 0.831477 -0.55556 0
    outer loop
      vertex -4.25711 1.30711 -1
      vertex -4.47388 0.982682 1
      vertex -4.47388 0.982682 -1
    endloop
  endfacet
  facet normal 0.980785 0.195089 0
    outer loop
      vertex -4.47388 -0.982682 1
      vertex -4.55 -0.599999 -1
      vertex -4.55 -0.599999 1
    endloop
  endfacet
  facet normal 0.980785 0.195089 0
    outer loop
      vertex -4.55 -0.599999 -1
      vertex -4.47388 -0.982682 1
      vertex -4.47388 -0.982682 -1
    endloop
  endfacet
  facet normal -0.195091 0.980785 0
    outer loop
      vertex 3.93268 -1.52388 -1
      vertex 3.55 -1.6 1
      vertex 3.93268 -1.52388 1
    endloop
  endfacet
  facet normal -0.195091 0.980785 0
    outer loop
      vertex 3.55 -1.6 1
      vertex 3.93268 -1.52388 -1
      vertex 3.55 -1.6 -1
    endloop
  endfacet
  facet normal 0.195091 0.980785 -0
    outer loop
      vertex -3.55 -1.6 -1
      vertex -3.93268 -1.52388 1
      vertex -3.55 -1.6 1
    endloop
  endfacet
  facet normal 0.195091 0.980785 0
    outer loop
      vertex -3.93268 -1.52388 1
      vertex -3.55 -1.6 -1
      vertex -3.93268 -1.52388 -1
    endloop
  endfacet
  facet normal -0.831477 0.55556 0
    outer loop
      vertex 4.25711 -1.30711 -1
      vertex 4.47388 -0.982682 1
      vertex 4.47388 -0.982682 -1
    endloop
  endfacet
  facet normal -0.831477 0.55556 0
    outer loop
      vertex 4.47388 -0.982682 1
      vertex 4.25711 -1.30711 -1
      vertex 4.25711 -1.30711 1
    endloop
  endfacet
  facet normal -1 0 0
    outer loop
      vertex 4.55 -0.599999 -1
      vertex 4.55 0.599999 1
      vertex 4.55 0.599999 -1
    endloop
  endfacet
  facet normal -1 -0 0
    outer loop
      vertex 4.55 0.599999 1
      vertex 4.55 -0.599999 -1
      vertex 4.55 -0.599999 1
    endloop
  endfacet
  facet normal -0.980785 0.195089 0
    outer loop
      vertex 4.47388 -0.982682 -1
      vertex 4.55 -0.599999 1
      vertex 4.55 -0.599999 -1
    endloop
  endfacet
  facet normal -0.980785 0.195089 0
    outer loop
      vertex 4.55 -0.599999 1
      vertex 4.47388 -0.982682 -1
      vertex 4.47388 -0.982682 1
    endloop
  endfacet
endsolid OpenSCAD_Model
